<svg width="58" height="78" viewBox="0 0 58 78" fill="none" xmlns="http://www.w3.org/2000/svg">
<path d="M2.64258 44.5005C2.64258 37.2023 8.56848 31.2859 15.8784 31.2859H40.4994C47.8093 31.2859 53.7352 37.2023 53.7352 44.5005V62.6174C53.7352 69.9156 47.8093 75.832 40.4994 75.832H15.8784C8.56848 75.832 2.64258 69.9156 2.64258 62.6174V44.5005Z" fill="white"/>
<path fill-rule="evenodd" clip-rule="evenodd" d="M15.8784 29.1179H40.4994C49.0086 29.1179 55.9068 36.0049 55.9068 44.5005V62.6174C55.9068 71.1129 49.0086 78 40.4994 78H15.8784C7.36919 78 0.471074 71.113 0.471074 62.6174V44.5005C0.471074 36.0049 7.36919 29.1179 15.8784 29.1179ZM15.8784 31.2859C8.56848 31.2859 2.64258 37.2023 2.64258 44.5005V62.6174C2.64258 69.9156 8.56848 75.832 15.8784 75.832H40.4994C47.8093 75.832 53.7352 69.9156 53.7352 62.6174V44.5005C53.7352 37.2023 47.8093 31.2859 40.4994 31.2859H15.8784Z" fill="black"/>
<path d="M15.7302 55.0163H41.5303L45.9939 74.8516H10.4131L15.7302 55.0163Z" fill="#BD7440"/>
<path fill-rule="evenodd" clip-rule="evenodd" d="M17.397 57.1844L13.2422 72.6836H43.2804L39.7926 57.1844H17.397ZM41.5303 55.0163H15.7302L10.4131 74.8516H45.9939L41.5303 55.0163Z" fill="black"/>
<path fill-rule="evenodd" clip-rule="evenodd" d="M15.8784 29.1179H40.4994C49.0086 29.1179 55.9068 36.0049 55.9068 44.5005V62.6174C55.9068 71.1129 49.0086 78 40.4994 78H15.8784C7.36919 78 0.471074 71.113 0.471074 62.6174V44.5005C0.471074 36.0049 7.36919 29.1179 15.8784 29.1179ZM15.8784 31.2859C8.56848 31.2859 2.64258 37.2023 2.64258 44.5005V62.6174C2.64258 69.9156 8.56848 75.832 15.8784 75.832H40.4994C47.8093 75.832 53.7352 69.9156 53.7352 62.6174V44.5005C53.7352 37.2023 47.8093 31.2859 40.4994 31.2859H15.8784Z" fill="black"/>
<path d="M0.79146 35.7822C-0.191647 40.6723 3.15726 43.9932 8.24346 43.2222C12.3591 43.2222 15.6955 39.8912 15.6955 35.7822C15.6955 31.6732 12.3591 28.3422 8.24346 28.3422C4.12784 28.3422 1.52811 31.5576 0.79146 35.7822Z" fill="#BE7142"/>
<path fill-rule="evenodd" clip-rule="evenodd" d="M8.24346 28.9616C12.0164 28.9616 15.075 32.0153 15.075 35.7822C15.075 39.5491 12.0164 42.6028 8.24346 42.6028H8.19663L8.15033 42.6098C5.75634 42.9727 3.86068 42.3632 2.67972 41.1866C1.50325 40.0145 0.941133 38.1854 1.39976 35.9041L1.40133 35.8963L1.4027 35.8884C2.11059 31.8288 4.54602 28.9616 8.24346 28.9616ZM16.3159 35.7822C16.3159 31.3311 12.7017 27.7227 8.24346 27.7227C3.71235 27.7227 0.948935 31.2821 0.181595 35.6681C-0.340078 38.2737 0.280984 40.547 1.80322 42.0636C3.31382 43.5686 5.61791 44.2351 8.29053 43.8415C12.7272 43.8162 16.3159 40.2176 16.3159 35.7822Z" fill="black"/>
<path d="M9.90775 36.2785C9.90775 38.8326 8.31982 40.9031 6.361 40.9031C4.40219 40.9031 2.81425 38.8326 2.81425 36.2785C2.81425 33.7244 4.40219 31.6539 6.361 31.6539C8.31982 31.6539 9.90775 33.7244 9.90775 36.2785Z" fill="#8F502C"/>
<path d="M57.2085 35.8092C58.1917 40.6993 54.8427 44.0202 49.7565 43.2492C45.6409 43.2492 42.3045 39.9182 42.3045 35.8092C42.3045 31.7002 45.6409 28.3692 49.7565 28.3692C53.8722 28.3692 56.4719 31.5846 57.2085 35.8092Z" fill="#BE7142"/>
<path fill-rule="evenodd" clip-rule="evenodd" d="M49.7565 28.9886C45.9836 28.9886 42.925 32.0423 42.925 35.8092C42.925 39.5761 45.9836 42.6298 49.7565 42.6298H49.8034L49.8497 42.6368C52.2437 42.9997 54.1393 42.3903 55.3203 41.2137C56.4968 40.0415 57.0589 38.2124 56.6002 35.9311L56.5987 35.9233L56.5973 35.9154C55.8894 31.8558 53.454 28.9886 49.7565 28.9886ZM41.6841 35.8092C41.6841 31.3581 45.2983 27.7497 49.7565 27.7497C54.2876 27.7497 57.0511 31.3092 57.8184 35.6951C58.3401 38.3007 57.719 40.574 56.1968 42.0906C54.6862 43.5956 52.3821 44.2621 49.7095 43.8685C45.2728 43.8433 41.6841 40.2447 41.6841 35.8092Z" fill="black"/>
<path d="M54.5093 36.3761C54.5093 38.9302 52.9214 41.0007 50.9626 41.0007C49.0038 41.0007 47.4158 38.9302 47.4158 36.3761C47.4158 33.822 49.0038 31.7515 50.9626 31.7515C52.9214 31.7515 54.5093 33.822 54.5093 36.3761Z" fill="#8F502C"/>
<path d="M10.1497 25.3123C10.1497 20.9843 12.9177 17.0788 17.114 15.9927C26.5607 13.5476 33.461 13.5033 41.898 15.8685C45.9173 16.9953 48.4814 20.8171 48.4814 24.9851V49.2929C48.4814 53.5144 45.8495 57.3618 41.7746 58.4887C32.8812 60.9482 25.9709 60.9511 16.9056 58.4717C12.8076 57.3509 10.1497 53.4928 10.1497 49.2507V25.3123Z" fill="#BE7142"/>
<path fill-rule="evenodd" clip-rule="evenodd" d="M16.6729 14.2938C26.3833 11.7805 33.6021 11.7199 42.3733 14.1788C47.2448 15.5445 50.2393 20.1322 50.2393 24.9851V49.2929C50.2393 54.2143 47.1627 58.8197 42.2439 60.1801C33.0407 62.7253 25.8077 62.7262 16.4412 60.1644C11.4995 58.8128 8.39177 54.1978 8.39177 49.2507V25.3123C8.39177 20.2595 11.6309 15.5987 16.6729 14.2938ZM17.114 15.9927C12.9177 17.0788 10.1497 20.9843 10.1497 25.3123V49.2507C10.1497 53.4928 12.8076 57.3509 16.9056 58.4717C25.9709 60.9511 32.8812 60.9482 41.7746 58.4887C45.8495 57.3618 48.4814 53.5144 48.4814 49.2929V24.9851C48.4814 20.8171 45.9173 16.9953 41.898 15.8685C33.461 13.5033 26.5607 13.5476 17.114 15.9927Z" fill="black"/>
<path d="M46.834 33.4308C46.834 37.1142 43.4412 40.1002 39.256 40.1002C35.0708 40.1002 31.678 37.1142 31.678 33.4308C31.678 29.7475 35.0708 26.7615 39.256 26.7615C43.4412 26.7615 46.834 29.7475 46.834 33.4308Z" fill="white"/>
<path fill-rule="evenodd" clip-rule="evenodd" d="M39.256 39.3775C43.1299 39.3775 46.1101 36.6321 46.1101 33.4308C46.1101 30.2295 43.1299 27.4842 39.256 27.4842C35.3821 27.4842 32.4019 30.2295 32.4019 33.4308C32.4019 36.6321 35.3821 39.3775 39.256 39.3775ZM39.256 40.1002C43.4412 40.1002 46.834 37.1142 46.834 33.4308C46.834 29.7475 43.4412 26.7615 39.256 26.7615C35.0708 26.7615 31.678 29.7475 31.678 33.4308C31.678 37.1142 35.0708 40.1002 39.256 40.1002Z" fill="black"/>
<path d="M44.2724 32.8798C44.2724 35.3181 42.0265 37.2947 39.256 37.2947C36.4855 37.2947 34.2396 35.3181 34.2396 32.8798C34.2396 30.4416 36.4855 28.465 39.256 28.465C42.0265 28.465 44.2724 30.4416 44.2724 32.8798Z" fill="#12121D"/>
<path fill-rule="evenodd" clip-rule="evenodd" d="M39.256 36.5721C41.7152 36.5721 43.5485 34.836 43.5485 32.8798C43.5485 30.9236 41.7152 29.1876 39.256 29.1876C36.7968 29.1876 34.9635 30.9236 34.9635 32.8798C34.9635 34.836 36.7968 36.5721 39.256 36.5721ZM39.256 37.2947C42.0265 37.2947 44.2724 35.3181 44.2724 32.8798C44.2724 30.4416 42.0265 28.465 39.256 28.465C36.4855 28.465 34.2396 30.4416 34.2396 32.8798C34.2396 35.3181 36.4855 37.2947 39.256 37.2947Z" fill="#11111C"/>
<path d="M11.6984 33.5341C11.6984 37.2175 15.0912 40.2034 19.2764 40.2034C23.4616 40.2034 26.8543 37.2175 26.8543 33.5341C26.8543 29.8507 23.4616 26.8647 19.2764 26.8647C15.0912 26.8647 11.6984 29.8507 11.6984 33.5341Z" fill="white"/>
<path fill-rule="evenodd" clip-rule="evenodd" d="M19.2764 39.4808C15.4025 39.4808 12.4223 36.7354 12.4223 33.5341C12.4223 30.3328 15.4025 27.5874 19.2764 27.5874C23.1503 27.5874 26.1305 30.3328 26.1305 33.5341C26.1305 36.7354 23.1503 39.4808 19.2764 39.4808ZM19.2764 40.2034C15.0912 40.2034 11.6984 37.2175 11.6984 33.5341C11.6984 29.8507 15.0912 26.8647 19.2764 26.8647C23.4616 26.8647 26.8543 29.8507 26.8543 33.5341C26.8543 37.2175 23.4616 40.2034 19.2764 40.2034Z" fill="black"/>
<path d="M14.26 32.9831C14.26 35.4214 16.5059 37.398 19.2764 37.398C22.0468 37.398 24.2927 35.4214 24.2927 32.9831C24.2927 30.5448 22.0468 28.5682 19.2764 28.5682C16.5059 28.5682 14.26 30.5448 14.26 32.9831Z" fill="#12121D"/>
<path fill-rule="evenodd" clip-rule="evenodd" d="M19.2764 36.6753C16.8172 36.6753 14.9838 34.9393 14.9838 32.9831C14.9838 31.0269 16.8172 29.2909 19.2764 29.2909C21.7356 29.2909 23.5689 31.0269 23.5689 32.9831C23.5689 34.9393 21.7356 36.6753 19.2764 36.6753ZM19.2764 37.398C16.5059 37.398 14.26 35.4214 14.26 32.9831C14.26 30.5448 16.5059 28.5682 19.2764 28.5682C22.0468 28.5682 24.2927 30.5448 24.2927 32.9831C24.2927 35.4214 22.0468 37.398 19.2764 37.398Z" fill="#11111C"/>
<path d="M31.7814 27.9773C31.7814 27.0491 32.4032 26.2298 33.3055 26.0061C38.814 24.6403 41.969 24.7995 46.5029 25.2764C47.4213 25.3731 48.1457 26.0998 48.2436 27.0167L48.7493 31.7515C42.2673 31.395 38.5689 31.354 31.7814 31.7515V27.9773Z" fill="#260B05"/>
<path fill-rule="evenodd" clip-rule="evenodd" d="M46.4379 25.8925C41.9444 25.4197 38.8682 25.2651 33.4551 26.6072C32.8385 26.7601 32.4019 27.3243 32.4019 27.9773V31.0955C38.5536 30.7511 42.1997 30.7838 48.0551 31.0937L47.6267 27.0823C47.5595 26.454 47.0635 25.9583 46.4379 25.8925ZM48.2436 27.0167C48.1457 26.0998 47.4213 25.3731 46.5029 25.2764C41.969 24.7995 38.814 24.6403 33.3055 26.0061C32.4032 26.2298 31.7814 27.0491 31.7814 27.9773V31.7515C31.9911 31.7392 32.1979 31.7273 32.4019 31.7159C38.584 31.3689 42.2168 31.4032 48.1217 31.7175C48.3281 31.7285 48.5372 31.7398 48.7493 31.7515L48.2436 27.0167Z" fill="black"/>
<path d="M26.8543 28.0805C26.8543 27.1523 26.2325 26.333 25.3303 26.1093C19.8218 24.7435 16.6668 24.9027 12.1329 25.3797C11.2144 25.4763 10.4901 26.203 10.3922 27.1199L9.88647 31.8547C16.3685 31.4983 20.0669 31.4572 26.8543 31.8547V28.0805Z" fill="#260B05"/>
<path fill-rule="evenodd" clip-rule="evenodd" d="M12.1979 25.9957C16.6914 25.523 19.7676 25.3683 25.1807 26.7105C25.7973 26.8634 26.2339 27.4275 26.2339 28.0805V31.1987C20.0822 30.8544 16.4361 30.887 10.5807 31.1969L11.0091 27.1856C11.0762 26.5572 11.5723 26.0615 12.1979 25.9957ZM10.3922 27.1199C10.4901 26.203 11.2144 25.4763 12.1329 25.3797C16.6668 24.9027 19.8218 24.7435 25.3303 26.1093C26.2325 26.333 26.8543 27.1523 26.8543 28.0805V31.8547C26.6446 31.8424 26.4379 31.8306 26.2339 31.8191C20.0518 31.4722 16.419 31.5064 10.514 31.8207C10.3077 31.8317 10.0986 31.843 9.88647 31.8547L10.3922 27.1199Z" fill="black"/>
<path fill-rule="evenodd" clip-rule="evenodd" d="M48.8604 37.3754C49.0321 39.662 46.2322 44.5098 35.376 44.5784L29.2779 45.0208L23.1799 44.5784C12.3237 44.5098 9.52372 39.662 9.6955 37.3754C9.15154 41.2627 8.23541 51.5241 11.4991 55.2114C13.904 59.9447 24.3537 60.8423 29.2779 60.6993C34.2022 60.8423 44.6519 59.9447 47.0567 55.2114C50.3205 51.5241 49.4043 41.2627 48.8604 37.3754ZM39.3268 48.0941C38.8458 47.4081 32.1116 47.0474 29.2779 47.0474C25.6989 47.0474 19.71 47.4081 19.229 48.0941C18.6278 48.9516 16.4435 56.6349 22.4069 56.2404C27.3544 55.913 28.0498 55.0853 28.793 54.2008C28.9413 54.0243 29.0916 53.8454 29.2779 53.6679C29.4086 53.7936 29.5212 53.9181 29.6326 54.0412C30.3512 54.8352 31.018 55.5722 36.149 56.2404C42.0752 57.0121 39.928 48.9516 39.3268 48.0941Z" fill="#260B05"/>
<path fill-rule="evenodd" clip-rule="evenodd" d="M26.3455 40.5985V33.2158H26.9659V41.1862L26.671 41.2007C25.4417 41.2612 23.9882 41.4373 22.935 41.7931C22.4037 41.9725 22.0141 42.1849 21.7971 42.4181C21.6924 42.5305 21.6349 42.6401 21.6128 42.7482C21.5911 42.8549 21.5992 42.9833 21.6637 43.1425C21.7158 43.2712 21.8329 43.4079 22.04 43.545C22.246 43.6814 22.5211 43.8049 22.854 43.9142C23.5198 44.1327 24.3693 44.279 25.2418 44.3756C26.9 44.5591 28.5847 44.5572 29.1238 44.5566C29.151 44.5566 29.1753 44.5566 29.1965 44.5566C29.2866 44.5566 29.4121 44.5585 29.5668 44.5609C30.3165 44.5726 31.7536 44.595 33.1949 44.4578C34.064 44.375 34.9171 44.2355 35.609 44.0073C36.3146 43.7746 36.7848 43.4715 36.9828 43.11C37.0922 42.9102 37.1303 42.7483 37.1286 42.6185C37.1269 42.4919 37.0873 42.3762 37.0075 42.2646C36.8384 42.0282 36.487 41.8091 35.9585 41.6315C34.9135 41.2803 33.3794 41.1569 31.9852 41.201L31.6652 41.2111V33.2158H32.2856V40.5746C33.6277 40.5564 35.0945 40.6875 36.1565 41.0444C36.724 41.2352 37.2283 41.5074 37.5124 41.9046C37.6591 42.1098 37.7455 42.3466 37.749 42.6105C37.7524 42.8712 37.6746 43.1379 37.5272 43.4072C37.2113 43.9839 36.5453 44.3509 35.8036 44.5955C35.0482 44.8446 34.1428 44.9898 33.2538 45.0744C31.772 45.2155 30.2866 45.192 29.5454 45.1802C29.3975 45.1779 29.2792 45.176 29.1965 45.176C29.1751 45.176 29.1505 45.176 29.1229 45.1761C28.5824 45.1767 26.8674 45.1788 25.1734 44.9913C24.2847 44.8929 23.386 44.7408 22.6603 44.5027C22.2973 44.3836 21.9657 44.2392 21.6971 44.0612C21.4296 43.8841 21.204 43.66 21.0885 43.3747C20.9854 43.1199 20.9554 42.8676 21.0049 42.6247C21.0541 42.383 21.1772 42.174 21.3426 41.9964C21.6656 41.6495 22.1734 41.3964 22.7361 41.2063C23.783 40.8527 25.1589 40.6725 26.3455 40.5985Z" fill="black"/>
<path d="M31.9754 40.8914V33.2158H26.6557V40.8914C24.1786 41.0132 20.7056 41.6026 21.3761 43.2586C22.0466 44.9146 28.3162 44.8663 29.1965 44.8663C30.2204 44.8663 36.2273 45.135 37.255 43.2586C38.2826 41.3822 34.7939 40.8024 31.9754 40.8914Z" fill="url(#paint0_linear_848_2440)"/>
<path d="M20.5663 18.0936C16.5092 18.7265 14.4806 19.6126 14.8609 16.8278C14.8609 15.7609 21.7074 13.0303 33.3717 13.41C42.7032 13.7138 47.0756 18.0235 47.794 20.0066C48.5708 22.1506 49.3842 24.462 44.2753 19.7392C40.8521 16.5746 24.6235 17.4607 20.5663 18.0936Z" fill="#D99663"/>
<path fill-rule="evenodd" clip-rule="evenodd" d="M16.3293 14.3834C26.2974 11.7604 33.6211 11.6896 42.5984 14.2424C47.3297 15.5878 50.2995 19.9811 50.4453 24.702L51.239 50.3975C51.3947 55.4376 48.2979 60.2829 43.1631 61.5406C33.4483 63.9203 24.7651 63.5432 14.9706 60.9005C9.82326 59.5117 6.67711 54.6102 6.91815 49.466L8.07055 24.8717C8.29778 20.0222 11.4976 15.6549 16.3293 14.3834ZM16.7773 16.0805C12.7519 17.1398 10.021 20.8021 9.82651 24.9538L8.67412 49.548C8.46749 53.9578 11.1606 58.0545 15.4292 59.2062C24.9752 61.7819 33.3544 62.1362 42.7443 59.8361C46.9611 58.8032 49.6158 54.7845 49.4819 50.4516L48.6883 24.7561C48.5631 20.7027 46.0234 17.0412 42.1168 15.9303C33.4797 13.4742 26.4796 13.5274 16.7773 16.0805Z" fill="black"/>
<path d="M23.6148 2.41306C23.5223 1.70912 23.9566 1.0387 24.6431 0.853617C28.8489 -0.280195 31.508 -0.282837 35.2761 0.83562C35.9345 1.03105 36.3437 1.67989 36.2623 2.36084L34.6029 16.2402H25.7937C25.586 16.2402 25.4106 16.0865 25.3836 15.8809L23.6148 2.41306Z" fill="#260B05"/>
<path fill-rule="evenodd" clip-rule="evenodd" d="M30.1255 1.13565C28.5974 1.13802 26.9858 1.39837 24.9397 1.94998C24.8197 1.98231 24.722 2.10833 24.7426 2.26542L26.4288 15.1046H33.5931L35.1329 2.22623C35.1514 2.07138 35.0575 1.95549 34.952 1.92416C33.1423 1.38703 31.6481 1.13328 30.1255 1.13565ZM34.6029 16.2402L36.2623 2.36084C36.3437 1.67989 35.9345 1.03105 35.2761 0.83562C31.508 -0.282837 28.8489 -0.280195 24.6431 0.853617C23.9566 1.0387 23.5223 1.70912 23.6148 2.41306L25.3836 15.8809C25.4106 16.0865 25.586 16.2402 25.7937 16.2402H34.6029Z" fill="#0B0204"/>
<path d="M28.3389 12.2198L26.9221 1.27564L29.2338 0.828937L28.3389 12.2198Z" fill="#060204"/>
<path fill-rule="evenodd" clip-rule="evenodd" d="M29.2907 0.765421L28.3905 12.2239L28.2877 12.2265L26.8646 1.23422L29.2907 0.765421ZM26.9796 1.31715L28.3264 11.7199L29.177 0.892549L26.9796 1.31715Z" fill="black"/>
<path d="M31.7692 6.71062V0.977948L33.5589 1.3502L31.7692 6.71062Z" fill="#060204"/>
<path fill-rule="evenodd" clip-rule="evenodd" d="M31.7175 0.914432L33.6263 1.31146L31.8183 6.72691L31.7175 6.71059V0.914432ZM31.8209 1.0414V6.39249L33.4915 1.38887L31.8209 1.0414Z" fill="black"/>
<path d="M3.16195 40.7687C3.4653 40.0223 4.27145 39.6132 5.05747 39.795C5.88203 39.9857 6.4334 40.7673 6.31519 41.604C5.88425 44.6545 5.3636 46.6306 4.53824 49.209C4.27235 50.0396 3.40907 50.5229 2.55816 50.3261C1.79286 50.1491 1.24435 49.4673 1.27759 48.6837C1.40735 45.6245 2.01912 43.5809 3.16195 40.7687Z" fill="#EAB94B"/>
<path fill-rule="evenodd" clip-rule="evenodd" d="M4.04576 49.0518C4.86452 46.494 5.3773 44.5469 5.80323 41.5319C5.88305 40.9669 5.51092 40.4297 4.9408 40.2979C4.39786 40.1723 3.84709 40.4558 3.64105 40.9628C2.51152 43.7422 1.92056 45.7253 1.79415 48.7055C1.77202 49.2272 2.13824 49.6991 2.67483 49.8232C3.26678 49.9601 3.86283 49.6233 4.04576 49.0518ZM5.05747 39.795C4.27145 39.6132 3.4653 40.0223 3.16195 40.7687C2.01912 43.5809 1.40735 45.6245 1.27759 48.6837C1.24435 49.4673 1.79286 50.1491 2.55816 50.3261C3.40907 50.5229 4.27235 50.0396 4.53824 49.209C5.3636 46.6306 5.88425 44.6545 6.31519 41.604C6.4334 40.7673 5.88203 39.9857 5.05747 39.795Z" fill="black"/>
<path d="M3.48926 48.0868C3.48926 48.7983 3.15249 49.3751 2.73707 49.3751C2.32165 49.3751 1.98489 48.7983 1.98489 48.0868C1.98489 47.3753 2.32165 46.7986 2.73707 46.7986C3.15249 46.7986 3.48926 47.3753 3.48926 48.0868Z" fill="#F0EDCB"/>
<path fill-rule="evenodd" clip-rule="evenodd" d="M41.688 40.4398C37.5922 41.598 34.7381 39.3276 33.6613 37.8839L33.9931 37.6373C35.0087 38.9989 37.852 41.2608 41.7649 40.4237L41.688 40.4398Z" fill="black"/>
<path fill-rule="evenodd" clip-rule="evenodd" d="M16.8609 40.7126C20.7777 41.3608 23.7038 38.884 24.7194 37.5224L25.0512 37.769C23.9743 39.2127 20.9829 41.5944 16.8609 40.7126Z" fill="black"/>
<path fill-rule="evenodd" clip-rule="evenodd" d="M27.9692 29.4335C27.9829 28.9095 28.1585 28.4269 28.3827 27.809L28.4585 27.8408C28.3719 28.5142 28.3953 28.9632 28.3827 29.4443C28.371 29.8928 28.4267 30.3568 28.5861 30.9608C29.0811 31.0624 29.3732 31.0222 29.9093 30.9318L29.8747 31.1326C29.2778 31.2332 28.9188 31.2826 28.2685 31.13L28.1493 31.102L28.1165 30.9842C27.924 30.2914 27.9554 29.9611 27.9692 29.4335ZM30.4979 31.1913C30.1547 29.973 30.2587 29.2848 30.5979 27.8408C30.4769 29.2175 30.5657 29.9066 30.8961 31.0795L30.4979 31.1913Z" fill="black"/>
<path fill-rule="evenodd" clip-rule="evenodd" d="M35.8561 53.0751C34.0256 52.1053 32.596 51.3327 31.0076 50.4809C29.6859 49.7722 28.6454 49.4614 27.6734 49.2309C26.7034 49.0009 26.0392 48.9602 25.4379 49.3685C24.8313 49.7804 24.2441 50.4718 23.9174 51.813C23.7308 51.9669 23.6359 51.9903 23.5155 51.7154C23.8525 50.3322 24.3718 49.4195 25.1019 48.9238C25.8374 48.4243 26.7404 48.3787 27.769 48.6227C28.7958 48.8662 29.9788 49.4051 31.3067 50.1171C32.8964 50.9696 34.3328 52.0372 35.8561 53.0751ZM27.257 50.4292L27.5794 50.8092C28.0865 51.4067 29.8339 52.5274 32.4504 52.87C30.0493 52.87 28.36 52.3016 27.5694 51.5923C27.4808 52.0686 27.3 52.434 26.9874 52.9347C26.5702 53.6029 25.9045 54.1616 24.9073 54.1616C24.7089 54.0132 24.7196 53.9222 24.9073 53.7486C25.7204 53.7486 26.2699 53.3032 26.6364 52.7162C27.0065 52.1235 27.1756 51.4043 27.2156 50.9256L27.257 50.4292Z" fill="black"/>
<path d="M7.15636 72.5521H49.1806C47.6228 74.0262 45.6441 74.9176 42.93 75.8319H14.557C9.95795 74.9959 8.77216 74.0965 7.15636 72.5521Z" fill="#8C2A24"/>
<path d="M17.1681 61.472C25.9226 63.3648 30.9556 63.626 40.2013 62.2182L40.9147 65.6834C31.7298 67.8592 26.3044 67.9674 16.0131 65.6834L17.1681 61.472Z" fill="#935024"/>
<defs>
<linearGradient id="paint0_linear_848_2440" x1="29" y1="-3.73373" x2="29" y2="81.8835" gradientUnits="userSpaceOnUse">
<stop stop-color="#AF472F" stop-opacity="0"/>
<stop offset="0.8125" stop-color="#AF472F"/>
<stop offset="1" stop-color="#83321F"/>
</linearGradient>
</defs>
</svg>
