<svg width="58" height="73" viewBox="0 0 58 73" fill="none" xmlns="http://www.w3.org/2000/svg">
<path d="M2.64262 39.3286C2.64262 32.0346 8.56851 26.1216 15.8785 26.1216H40.4994C47.8093 26.1216 53.7352 32.0346 53.7352 39.3285V57.4348C53.7352 64.7288 47.8093 70.6418 40.4994 70.6418H15.8785C8.56851 70.6418 2.64262 64.7288 2.64262 57.4349V39.3286Z" fill="white"/>
<path fill-rule="evenodd" clip-rule="evenodd" d="M15.8785 23.9549H40.4994C49.0086 23.9549 55.9067 30.8379 55.9067 39.3285V57.4348C55.9067 65.9255 49.0086 72.8085 40.4994 72.8085H15.8785C7.36922 72.8085 0.471115 65.9255 0.471115 57.4349V39.3286C0.471115 30.8379 7.36922 23.9549 15.8785 23.9549ZM15.8785 26.1216C8.56851 26.1216 2.64262 32.0346 2.64262 39.3286V57.4349C2.64262 64.7288 8.56851 70.6418 15.8785 70.6418H40.4994C47.8093 70.6418 53.7352 64.7288 53.7352 57.4348V39.3285C53.7352 32.0346 47.8093 26.1216 40.4994 26.1216H15.8785Z" fill="black"/>
<path d="M15.7302 49.8384H41.5303L45.9939 69.662H10.4131L15.7302 49.8384Z" fill="#E5A279"/>
<path fill-rule="evenodd" clip-rule="evenodd" d="M17.397 52.0051L13.2422 67.4953H43.2804L39.7926 52.0051H17.397ZM41.5303 49.8384H15.7302L10.4131 69.662H45.9939L41.5303 49.8384Z" fill="black"/>
<path fill-rule="evenodd" clip-rule="evenodd" d="M15.8785 23.9549H40.4994C49.0086 23.9549 55.9067 30.8379 55.9067 39.3285V57.4348C55.9067 65.9255 49.0086 72.8085 40.4994 72.8085H15.8785C7.36922 72.8085 0.471115 65.9255 0.471115 57.4349V39.3286C0.471115 30.8379 7.36922 23.9549 15.8785 23.9549ZM15.8785 26.1216C8.56851 26.1216 2.64262 32.0346 2.64262 39.3286V57.4349C2.64262 64.7288 8.56851 70.6418 15.8785 70.6418H40.4994C47.8093 70.6418 53.7352 64.7288 53.7352 57.4348V39.3285C53.7352 32.0346 47.8093 26.1216 40.4994 26.1216H15.8785Z" fill="black"/>
<path d="M0.79146 30.7266C-0.191647 25.8393 3.15726 22.5203 8.24346 23.2909C12.3591 23.2909 15.6955 26.62 15.6955 30.7266C15.6955 34.8332 12.3591 38.1623 8.24346 38.1623C4.12783 38.1623 1.52811 34.9487 0.79146 30.7266Z" fill="#E6A279"/>
<path fill-rule="evenodd" clip-rule="evenodd" d="M8.24346 37.5432C12.0164 37.5432 15.075 34.4913 15.075 30.7266C15.075 26.9619 12.0164 23.91 8.24346 23.91H8.19662L8.15032 23.9029C5.75634 23.5403 3.86067 24.1494 2.67972 25.3253C1.50325 26.4967 0.941132 28.3248 1.39976 30.6047L1.40133 30.6126L1.4027 30.6204C2.11059 34.6777 4.54601 37.5432 8.24346 37.5432ZM16.3159 30.7266C16.3159 35.1751 12.7017 38.7813 8.24346 38.7813C3.71235 38.7813 0.948934 35.224 0.181594 30.8406C-0.340078 28.2366 0.280984 25.9646 1.80322 24.4488C3.31382 22.9447 5.6179 22.2786 8.29052 22.6719C12.7271 22.6972 16.3159 26.2937 16.3159 30.7266Z" fill="black"/>
<path d="M9.90778 30.2305C9.90778 27.6779 8.31985 25.6086 6.36103 25.6086C4.40222 25.6086 2.81429 27.6779 2.81429 30.2305C2.81429 32.7831 4.40222 34.8525 6.36103 34.8525C8.31985 34.8525 9.90778 32.7831 9.90778 30.2305Z" fill="#C88B66"/>
<path d="M57.2085 30.7535C58.1916 25.8662 54.8427 22.5472 49.7565 23.3178C45.6409 23.3178 42.3045 26.6469 42.3045 30.7535C42.3045 34.8601 45.6409 38.1892 49.7565 38.1892C53.8722 38.1892 56.4719 34.9756 57.2085 30.7535Z" fill="#E6A279"/>
<path fill-rule="evenodd" clip-rule="evenodd" d="M49.7565 37.5701C45.9836 37.5701 42.925 34.5182 42.925 30.7535C42.925 26.9888 45.9836 23.9369 49.7565 23.9369H49.8034L49.8497 23.9298C52.2437 23.5672 54.1393 24.1763 55.3203 25.3522C56.4967 26.5236 57.0589 28.3517 56.6002 30.6317L56.5987 30.6395L56.5973 30.6473C55.8894 34.7046 53.454 37.5701 49.7565 37.5701ZM41.6841 30.7535C41.6841 35.202 45.2983 38.8083 49.7565 38.8083C54.2876 38.8083 57.0511 35.2509 57.8184 30.8675C58.3401 28.2635 57.719 25.9915 56.1968 24.4757C54.6862 22.9716 52.3821 22.3055 49.7095 22.6988C45.2729 22.7241 41.6841 26.3206 41.6841 30.7535Z" fill="black"/>
<path d="M54.5093 30.187C54.5093 27.6344 52.9214 25.5651 50.9625 25.5651C49.0037 25.5651 47.4158 27.6344 47.4158 30.187C47.4158 32.7397 49.0037 34.809 50.9625 34.809C52.9214 34.809 54.5093 32.7397 54.5093 30.187Z" fill="#C88B66"/>
<path d="M9.88297 19.4272C9.8208 15.5769 12.4577 12.2776 16.1669 11.2143C26.3759 8.28765 33.5647 8.22401 42.6136 11.0346C46.2579 12.1666 48.7274 15.5467 48.539 19.3505C48.0053 30.1249 44.5982 42.3202 42.6524 48.528C41.8257 51.1655 39.8648 53.2905 37.2874 54.302C30.3033 57.0429 27.2705 57.0514 20.9374 55.2213C17.7776 54.3082 15.3425 51.7951 14.5171 48.6177C12.7876 41.9597 10.0515 29.8645 9.88297 19.4272Z" fill="#E6A279"/>
<path fill-rule="evenodd" clip-rule="evenodd" d="M15.6815 9.52847C26.1761 6.51993 33.7182 6.43462 43.1361 9.35985C47.5126 10.7192 50.5245 14.8 50.2948 19.4371C49.7494 30.4459 46.2838 42.8187 44.3301 49.0516C43.3469 52.1886 41.0104 54.7258 37.9308 55.9343C34.3742 57.3301 31.6599 58.0982 28.9525 58.2278C26.2382 58.3577 23.6748 57.8385 20.4484 56.9062C16.6886 55.8197 13.7956 52.8307 12.8155 49.0578C11.0798 42.376 8.29741 30.1124 8.12531 19.4555C8.04937 14.7524 11.2684 10.7936 15.6815 9.52847ZM16.1669 11.2143C12.4577 12.2776 9.8208 15.5769 9.88297 19.4272C10.0515 29.8645 12.7876 41.9597 14.5171 48.6177C15.3425 51.7951 17.7776 54.3082 20.9374 55.2213C27.2705 57.0514 30.3033 57.0429 37.2874 54.302C39.8648 53.2905 41.8257 51.1655 42.6524 48.528C44.5982 42.3202 48.0053 30.1249 48.539 19.3505C48.7274 15.5467 46.2579 12.1666 42.6136 11.0346C33.5647 8.22401 26.3759 8.28765 16.1669 11.2143Z" fill="black"/>
<path d="M46.8339 28.2654C46.8339 31.9466 43.4411 34.9308 39.2559 34.9308C35.0707 34.9308 31.678 31.9466 31.678 28.2654C31.678 24.5842 35.0707 21.6 39.2559 21.6C43.4411 21.6 46.8339 24.5842 46.8339 28.2654Z" fill="white"/>
<path fill-rule="evenodd" clip-rule="evenodd" d="M39.2559 34.2086C43.1298 34.2086 46.11 31.4648 46.11 28.2654C46.11 25.066 43.1298 22.3222 39.2559 22.3222C35.382 22.3222 32.4018 25.066 32.4018 28.2654C32.4018 31.4648 35.382 34.2086 39.2559 34.2086ZM39.2559 34.9308C43.4411 34.9308 46.8339 31.9466 46.8339 28.2654C46.8339 24.5842 43.4411 21.6 39.2559 21.6C35.0707 21.6 31.678 24.5842 31.678 28.2654C31.678 31.9466 35.0707 34.9308 39.2559 34.9308Z" fill="black"/>
<path d="M44.2723 27.7146C44.2723 30.1515 42.0264 32.1269 39.2559 32.1269C36.4855 32.1269 34.2396 30.1515 34.2396 27.7146C34.2396 25.2778 36.4855 23.3023 39.2559 23.3023C42.0264 23.3023 44.2723 25.2778 44.2723 27.7146Z" fill="#213928"/>
<path fill-rule="evenodd" clip-rule="evenodd" d="M39.2559 31.4047C41.7151 31.4047 43.5484 29.6697 43.5484 27.7146C43.5484 25.7596 41.7151 24.0246 39.2559 24.0246C36.7967 24.0246 34.9634 25.7596 34.9634 27.7146C34.9634 29.6697 36.7967 31.4047 39.2559 31.4047ZM39.2559 32.1269C42.0264 32.1269 44.2723 30.1515 44.2723 27.7146C44.2723 25.2778 42.0264 23.3023 39.2559 23.3023C36.4855 23.3023 34.2396 25.2778 34.2396 27.7146C34.2396 30.1515 36.4855 32.1269 39.2559 32.1269Z" fill="#11111C"/>
<path d="M11.6985 28.3686C11.6985 32.0498 15.0912 35.034 19.2764 35.034C23.4616 35.034 26.8544 32.0498 26.8544 28.3686C26.8544 24.6874 23.4616 21.7031 19.2764 21.7031C15.0912 21.7031 11.6985 24.6874 11.6985 28.3686Z" fill="white"/>
<path fill-rule="evenodd" clip-rule="evenodd" d="M19.2764 34.3118C15.4025 34.3118 12.4223 31.568 12.4223 28.3686C12.4223 25.1691 15.4025 22.4254 19.2764 22.4254C23.1503 22.4254 26.1305 25.1691 26.1305 28.3686C26.1305 31.568 23.1503 34.3118 19.2764 34.3118ZM19.2764 35.034C15.0912 35.034 11.6985 32.0498 11.6985 28.3686C11.6985 24.6874 15.0912 21.7031 19.2764 21.7031C23.4616 21.7031 26.8544 24.6874 26.8544 28.3686C26.8544 32.0498 23.4616 35.034 19.2764 35.034Z" fill="black"/>
<path d="M14.2601 27.8178C14.2601 30.2547 16.506 32.2301 19.2764 32.2301C22.0469 32.2301 24.2928 30.2547 24.2928 27.8178C24.2928 25.381 22.0469 23.4055 19.2764 23.4055C16.506 23.4055 14.2601 25.381 14.2601 27.8178Z" fill="#213928"/>
<path fill-rule="evenodd" clip-rule="evenodd" d="M19.2764 31.5079C16.8172 31.5079 14.9839 29.7729 14.9839 27.8178C14.9839 25.8627 16.8172 24.1277 19.2764 24.1277C21.7356 24.1277 23.5689 25.8627 23.5689 27.8178C23.5689 29.7729 21.7356 31.5079 19.2764 31.5079ZM19.2764 32.2301C16.506 32.2301 14.2601 30.2547 14.2601 27.8178C14.2601 25.381 16.506 23.4055 19.2764 23.4055C22.0469 23.4055 24.2928 25.381 24.2928 27.8178C24.2928 30.2547 22.0469 32.2301 19.2764 32.2301Z" fill="#11111C"/>
<path d="M31.7814 24.1433C31.7814 23.1584 32.4807 22.3067 33.4528 22.1362C38.8757 21.185 42.0155 21.3012 46.5156 21.6405C47.4286 21.7094 48.1713 22.4016 48.306 23.3052L48.7492 26.2775C42.2672 26.0222 38.5688 25.9927 31.7814 26.2775V24.1433Z" fill="#474747"/>
<path fill-rule="evenodd" clip-rule="evenodd" d="M46.4688 22.2578C41.9965 21.9206 38.9132 21.807 33.5602 22.7459C32.8924 22.863 32.4018 23.4513 32.4018 24.1433V25.6324C38.5451 25.3859 42.1844 25.4088 48.0254 25.63L47.6923 23.3963C47.6 22.7774 47.0916 22.3048 46.4688 22.2578ZM48.306 23.3052C48.1713 22.4016 47.4286 21.7094 46.5156 21.6405C42.0155 21.3012 38.8757 21.185 33.4528 22.1362C32.4807 22.3067 31.7814 23.1584 31.7814 24.1433V26.2775C31.9911 26.2687 32.1978 26.2602 32.4018 26.252C38.5828 26.0035 42.2153 26.028 48.1183 26.253C48.3257 26.2609 48.536 26.2691 48.7492 26.2775L48.306 23.3052Z" fill="black"/>
<path d="M26.8544 24.1587C26.8544 23.1769 26.1594 22.3269 25.191 22.1533C19.764 21.1807 16.6234 21.299 12.1221 21.6456C11.2082 21.7159 10.4662 22.4108 10.3341 23.3158L9.88652 26.3806C16.3685 26.1199 20.067 26.0899 26.8544 26.3806V24.1587Z" fill="#474747"/>
<path fill-rule="evenodd" clip-rule="evenodd" d="M12.1699 22.2628C16.6427 21.9185 19.7256 21.8028 25.0813 22.7626C25.7464 22.8818 26.2339 23.4688 26.2339 24.1587V25.735C20.0899 25.4833 16.4503 25.5067 10.6081 25.7326L10.948 23.4051C11.0386 22.7852 11.5465 22.3108 12.1699 22.2628ZM10.3341 23.3158C10.4662 22.4108 11.2082 21.7159 12.1221 21.6456C16.6234 21.299 19.764 21.1807 25.191 22.1533C26.1594 22.3269 26.8544 23.1769 26.8544 24.1587V26.3806C26.6447 26.3717 26.4379 26.363 26.2339 26.3546C20.0529 26.1009 16.4203 26.1259 10.5171 26.3557C10.3098 26.3637 10.0997 26.3721 9.88652 26.3806L10.3341 23.3158Z" fill="black"/>
<path fill-rule="evenodd" clip-rule="evenodd" d="M48.8603 32.2076C49.0127 34.5463 44.5992 39.5043 34.9674 39.5745L29.5571 40.027L24.1469 39.5745C14.5151 39.5043 9.9628 34.5463 10.1152 32.2076C9.6326 36.1834 10.6811 47.8132 13.5767 51.5843C15.7103 56.4254 25.1883 58.8051 29.5571 58.6589C33.926 58.8051 42.3122 56.3428 44.4458 51.5018C47.3415 47.7306 49.3429 36.1834 48.8603 32.2076ZM38.4727 43.1702C38.0459 42.4686 32.0712 42.0997 29.5571 42.0997C26.3818 42.0997 21.0683 42.4686 20.6416 43.1702C20.1082 44.0472 18.1703 51.9053 23.4611 51.5018C27.8506 51.167 28.4676 50.3204 29.1269 49.4158C29.2585 49.2353 29.3918 49.0524 29.5571 48.8707C29.6731 48.9994 29.773 49.1267 29.8718 49.2526C30.5093 50.0647 31.101 50.8184 35.6532 51.5018C40.9111 52.2911 39.0061 44.0472 38.4727 43.1702Z" fill="#260B05" fill-opacity="0.05"/>
<path d="M32.9918 34.0248L31.9754 28.0505H26.6557L25.6977 34.0248C21.8989 34.0248 20.5494 36.4439 21.3761 38.0874C22.2028 39.731 26.5391 39.1621 26.6557 38.3717C27.1516 38.915 27.6733 39.6942 29.1965 39.6942C30.5517 39.6942 30.4924 39.6504 31.8649 38.3717C34.3505 40.1317 36.7813 38.9518 37.255 38.0874C38.2826 36.2122 35.8103 33.9358 32.9918 34.0248Z" fill="url(#paint0_linear_848_2441)"/>
<path fill-rule="evenodd" clip-rule="evenodd" d="M41.688 35.2704C37.5921 36.4279 34.7381 34.1589 33.6613 32.716L33.993 32.4695C35.0086 33.8303 37.852 36.091 41.7649 35.2543L41.688 35.2704Z" fill="black"/>
<path fill-rule="evenodd" clip-rule="evenodd" d="M16.8609 35.5428C20.7777 36.1907 23.7038 33.7153 24.7194 32.3545L25.0512 32.601C23.9743 34.0438 20.9829 36.4242 16.8609 35.5428Z" fill="black"/>
<path fill-rule="evenodd" clip-rule="evenodd" d="M27.9692 24.2704C27.9829 23.7467 28.1584 23.2644 28.3827 22.6469L28.4585 22.6787C28.3719 23.3517 28.3952 23.8003 28.3827 24.2812C28.3709 24.7294 28.4266 25.1932 28.5861 25.7968C29.081 25.8983 29.3732 25.8582 29.9092 25.7679L29.8747 25.9685C29.2777 26.0691 28.9188 26.1184 28.2685 25.9659L28.1493 25.9379L28.1165 25.8202C27.9239 25.1278 27.9554 24.7977 27.9692 24.2704ZM30.4979 26.0272C30.1547 24.8096 30.2587 24.1218 30.5979 22.6787C30.4769 24.0545 30.5657 24.7433 30.8961 25.9155L30.4979 26.0272Z" fill="black"/>
<path fill-rule="evenodd" clip-rule="evenodd" d="M35.8561 47.8983C34.0256 46.929 32.596 46.1568 31.0076 45.3056C29.6859 44.5973 28.6454 44.2867 27.6735 44.0563C26.7034 43.8264 26.0392 43.7857 25.4379 44.1938C24.8313 44.6055 24.2442 45.2965 23.9174 46.6369C23.7308 46.7907 23.6359 46.814 23.5155 46.5393C23.8525 45.1569 24.3718 44.2448 25.1019 43.7493C25.8374 43.2502 26.7404 43.2046 27.769 43.4484C28.7958 43.6918 29.9788 44.2303 31.3068 44.942C32.8964 45.7939 34.3328 46.8609 35.8561 47.8983ZM27.257 45.2539L27.5795 45.6337C28.0865 46.2309 29.8339 47.3508 32.4504 47.6933C30.0493 47.6933 28.3601 47.1252 27.5695 46.4163C27.4809 46.8923 27.3 47.2575 26.9874 47.7579C26.5703 48.4257 25.9046 48.9841 24.9073 48.9841C24.7089 48.8358 24.7196 48.7449 24.9073 48.5714C25.7204 48.5714 26.27 48.1262 26.6364 47.5396C27.0065 46.9472 27.1756 46.2284 27.2156 45.75L27.257 45.2539Z" fill="black"/>
<path fill-rule="evenodd" clip-rule="evenodd" d="M31.7027 28.0984L32.3157 28.0026L33.1923 33.5856C34.5395 33.7681 35.8247 34.3571 36.6797 35.148C37.5828 35.9833 38.0686 37.1209 37.4576 38.2359C36.8677 39.3124 35.7 39.6995 34.5938 39.6982C33.6081 39.6971 32.5892 39.3904 31.9229 38.9023C31.3172 39.4381 30.8404 39.7231 30.4041 39.8674C29.9757 40.0091 29.6038 40.0066 29.2562 40.0043C29.2128 40.004 29.1697 40.0037 29.1269 40.0037C28.6453 40.0037 28.008 39.7717 27.4896 39.4536C27.2256 39.2916 26.9761 39.0975 26.7822 38.8815C26.7302 38.8236 26.6807 38.7624 26.6355 38.6982C26.5025 38.8057 26.3397 38.9089 26.1595 39.0041C25.7143 39.2395 25.1205 39.4486 24.491 39.5558C23.2588 39.7656 21.721 39.6015 21.0293 38.2263C20.6981 37.5679 20.6571 36.9354 20.8464 36.3603C21.033 35.7937 21.433 35.3124 21.9325 34.9234C22.8623 34.1992 24.1974 33.7465 25.4211 33.6388L26.2794 28.004L26.8928 28.097L25.9591 34.2272L25.7057 34.2396C24.5184 34.298 23.1898 34.7295 22.3142 35.4114C21.8786 35.7506 21.5727 36.1379 21.4359 36.5535C21.3018 36.9606 21.32 37.424 21.5838 37.9486C22.0822 38.9394 23.2257 39.1432 24.3866 38.9455C24.9537 38.849 25.4843 38.6604 25.869 38.4571C26.0622 38.355 26.2081 38.2546 26.302 38.1682C26.3821 38.0945 26.3974 38.0576 26.3974 38.0576C26.3974 38.0576 26.3967 38.0626 26.3962 38.0721L27.0139 38.049C27.028 38.1619 27.098 38.3054 27.2444 38.4685C27.3881 38.6286 27.5866 38.7864 27.8146 38.9263C28.2804 39.2121 28.8035 39.3847 29.1269 39.3847C29.1724 39.3847 29.2164 39.3848 29.2591 39.385C29.6119 39.3865 29.8824 39.3877 30.2089 39.2797C30.5737 39.1591 31.0306 38.8914 31.7001 38.2676L31.9101 38.072L32.1216 38.2658C32.6248 38.7269 33.604 39.078 34.5945 39.0792C35.5808 39.0803 36.4755 38.7377 36.9132 37.9389C37.3298 37.1787 37.057 36.341 36.258 35.602C35.4615 34.8653 34.2042 34.3033 32.8917 34.1736L32.6529 34.15L31.7027 28.0984Z" fill="black"/>
<path fill-rule="evenodd" clip-rule="evenodd" d="M39.4968 40.5719C38.735 39.0072 37.7762 37.5611 37.1281 36.7111L37.5395 36.3987C38.205 37.2714 39.1829 38.7465 39.9619 40.3464C40.7354 41.9352 40.9402 43.6064 40.7974 45.0307C40.9249 43.7585 40.264 42.1476 39.4968 40.5719Z" fill="black"/>
<path d="M7.15637 67.3638H49.1806C47.6228 68.8371 45.644 69.7279 42.9299 70.6418H14.557C9.95796 69.8062 8.77217 68.9074 7.15637 67.3638Z" fill="#8C2A24"/>
<path d="M9.27425 29.0551C9.27425 28.5422 9.69091 28.1265 10.2049 28.1265H24.9029C25.4169 28.1265 25.8335 28.5422 25.8335 29.0551V30.6593C25.8335 32.8817 24.028 34.6833 21.8007 34.6833H13.307C11.0798 34.6833 9.27425 32.8817 9.27425 30.6593V29.0551Z" fill="white" fill-opacity="0.38"/>
<path d="M32.6213 29.0551C32.6213 28.5422 33.038 28.1265 33.552 28.1265H48.2499C48.7639 28.1265 49.1806 28.5422 49.1806 29.0551V30.6593C49.1806 32.8817 47.375 34.6833 45.1478 34.6833H36.6541C34.4269 34.6833 32.6213 32.8817 32.6213 30.6593V29.0551Z" fill="white" fill-opacity="0.38"/>
<path fill-rule="evenodd" clip-rule="evenodd" d="M8.96403 29.7179C8.96403 28.7082 9.6898 27.8169 10.6693 27.8169H24.4027C25.2817 27.8169 25.9563 28.5346 26.0856 29.4115L32.3702 29.4814C32.5018 28.6074 33.1753 27.8932 34.0521 27.8932H47.7855C48.765 27.8932 49.4908 28.7845 49.4908 29.7941V34.0807H48.8703V29.7941C48.8703 29.0459 48.3469 28.5122 47.7855 28.5122H34.0521C33.4906 28.5122 32.9672 29.0459 32.9672 29.7941V31.6167H32.3468V30.1002L26.108 30.0309V31.5404H25.4876V29.7179C25.4876 28.9697 24.9642 28.436 24.4027 28.436H10.6693C10.1079 28.436 9.58446 28.9697 9.58446 29.7179V34.0045H8.96403V29.7179Z" fill="black"/>
<path fill-rule="evenodd" clip-rule="evenodd" d="M19.4031 39.6582C20.1649 38.0936 21.1237 36.6475 21.7719 35.7975L21.3604 35.4851C20.6949 36.3578 19.717 37.8328 18.938 39.4328C18.1645 41.0216 17.9597 42.6927 18.1025 44.117C17.975 42.8448 18.6359 41.234 19.4031 39.6582Z" fill="black"/>
<path fill-rule="evenodd" clip-rule="evenodd" d="M30.7957 19.517C32.539 19.5007 37.6728 19.7389 38.7242 19.9394C37.6447 19.7336 32.5735 18.9845 30.7909 19.0012C29.0207 19.0177 22.9223 18.7551 21.7079 19.517C22.7927 18.8365 29.0401 19.5335 30.7957 19.517Z" fill="black"/>
<path fill-rule="evenodd" clip-rule="evenodd" d="M28.2527 16.7296C29.9959 16.7133 35.6468 17.4674 36.6982 17.6679C35.6187 17.462 30.0304 16.197 28.2478 16.2137C26.4777 16.2303 20.8963 16.4836 19.6819 17.2455C20.7666 16.565 26.497 16.746 28.2527 16.7296Z" fill="black"/>
<path d="M45.9273 18.8152C45.9947 16.8871 44.8841 11.8447 44.8841 11.8447C31.8112 9.20014 24.9572 9.16614 13.6503 11.863C13.6503 11.863 12.5397 16.9054 12.6072 18.8336C10.2841 20.0172 8.58401 24.0452 8.58401 24.0452C8.58401 24.0452 7.70647 16.4257 8.64853 12.5004C12.4546 -3.35854 45.7485 -3.24709 49.377 11.863C50.3196 15.7882 50.2606 24.0269 50.2606 24.0269C50.2606 24.0269 48.2504 19.9988 45.9273 18.8152Z" fill="#3D3D3D"/>
<path fill-rule="evenodd" clip-rule="evenodd" d="M16.3762 4.08577C12.7645 6.01518 10.1055 8.86624 9.20162 12.6326C8.75092 14.5105 8.7296 17.3256 8.83121 19.7208C8.86757 20.5777 8.91914 21.3717 8.97023 22.0365C9.05515 21.8899 9.14538 21.7387 9.24065 21.5849C9.90503 20.5123 10.8674 19.2229 12.0373 18.5032C12.06 17.4429 12.3047 15.8581 12.5436 14.5253C12.6793 13.7687 12.8169 13.0733 12.9206 12.5673C12.9725 12.3142 13.016 12.1082 13.0465 11.9653C13.0617 11.8938 13.0738 11.838 13.082 11.8C13.0861 11.781 13.0893 11.7665 13.0915 11.7566L13.0948 11.7413C13.0948 11.7413 13.0948 11.7412 13.6503 11.863L13.0948 11.7413C13.1416 11.5289 13.306 11.3617 13.5181 11.3111C19.1991 9.95609 23.7858 9.28136 28.6052 9.28334C33.4205 9.28532 38.4443 9.96293 44.9971 11.2885C45.2178 11.3332 45.3913 11.5035 45.4396 11.7229L44.8841 11.8447C45.4396 11.7229 45.4396 11.7229 45.4396 11.7229L45.4398 11.724L45.4524 11.7817C45.4607 11.8197 45.4727 11.8754 45.488 11.9469C45.5185 12.0899 45.5619 12.2959 45.6138 12.549C45.7175 13.055 45.8552 13.7503 45.9908 14.507C46.2297 15.8394 46.4743 17.4237 46.4971 18.484C47.6681 19.1974 48.7005 20.4753 49.4343 21.5442C49.5178 21.6658 49.5982 21.7858 49.6751 21.9032C49.6624 21.1919 49.6407 20.3469 49.604 19.4397C49.5008 16.8872 49.2807 13.8974 48.8239 11.9952C47.9666 8.42498 45.35 5.69961 41.7583 3.86289C38.1644 2.0251 33.6377 1.10343 29.0834 1.13579C24.5293 1.16815 19.9921 2.15416 16.3762 4.08577ZM49.7515 24.2798L49.7508 24.2783L49.7471 24.271C49.7437 24.2643 49.7384 24.2539 49.7313 24.24C49.717 24.2122 49.6954 24.1705 49.6668 24.1164C49.6096 24.0083 49.5247 23.8513 49.4153 23.6586C49.1963 23.2726 48.881 22.7465 48.4959 22.1856C47.7082 21.0383 46.6929 19.8425 45.6686 19.3206C45.4719 19.2204 45.3512 19.0157 45.3589 18.7954C45.3901 17.9025 45.1426 16.221 44.8711 14.7068C44.7376 13.9619 44.6018 13.2761 44.4994 12.7764C44.4637 12.6022 44.4321 12.4507 44.406 12.3274C38.0659 11.0573 33.2231 10.4202 28.6047 10.4183C23.9997 10.4164 19.595 11.0461 14.1312 12.3323C14.1047 12.458 14.072 12.6142 14.035 12.7947C13.9326 13.2945 13.7969 13.9802 13.6633 14.7252C13.3918 16.2394 13.1443 17.9209 13.1756 18.8138C13.1833 19.034 13.0625 19.2388 12.8658 19.339C11.8535 19.8547 10.9166 21.0379 10.2082 22.1816C9.86238 22.7399 9.58597 23.2638 9.39606 23.6482C9.30127 23.8401 9.22845 23.9964 9.1797 24.1039C9.15533 24.1576 9.137 24.199 9.12499 24.2265C9.11898 24.2402 9.11455 24.2505 9.11173 24.2571L9.10872 24.2641L9.10809 24.2656L8.26655 26.2595L8.019 24.11L8.58401 24.0452C8.019 24.11 8.019 24.11 8.019 24.11L8.01827 24.1036L8.01632 24.0864C8.01463 24.0713 8.01216 24.0491 8.009 24.0201C8.00267 23.9622 7.99358 23.8772 7.98237 23.7679C7.95995 23.5493 7.92907 23.2335 7.89502 22.8424C7.82694 22.0607 7.74603 20.977 7.69478 19.7688C7.59314 17.3729 7.60408 14.4156 8.09544 12.3683C9.09457 8.20513 12.0246 5.12302 15.8394 3.08518C19.65 1.04954 24.3767 0.0342374 29.0753 0.000851595C33.7738 -0.0325333 38.4888 0.915623 42.277 2.85285C46.0674 4.79115 48.9732 7.746 49.9301 11.7308C50.4158 13.7538 50.6375 16.8459 50.7405 19.394C50.7924 20.6761 50.8146 21.8343 50.8238 22.672C50.8284 23.0909 50.8298 23.43 50.8301 23.6646C50.8302 23.7819 50.83 23.8732 50.8298 23.9352L50.8297 23.9725C50.8296 23.986 50.8296 23.9972 50.8295 24.0061L50.8294 24.0304C50.8294 24.0304 50.8294 24.0309 50.2606 24.0269L50.8294 24.0304L49.7515 24.2798V24.2798Z" fill="black"/>
<path d="M27.9023 63.6124L12.754 56.3247L8.29071 67.931H48.8664L43.1858 56.3247L27.9023 63.6124Z" fill="white"/>
<path fill-rule="evenodd" clip-rule="evenodd" d="M12.557 55.829L27.903 63.2118L43.3535 55.8445L49.4459 68.2921H7.76419L12.557 55.829ZM43.0181 56.805L27.9016 64.013L12.9511 56.8204L8.81723 67.5699H48.2869L43.0181 56.805Z" fill="black"/>
<path fill-rule="evenodd" clip-rule="evenodd" d="M12.557 55.829L27.903 63.2118L43.3535 55.8445L49.4459 68.2921H7.76419L12.557 55.829ZM43.0181 56.805L27.9016 64.013L12.9511 56.8204L8.81723 67.5699H48.2869L43.0181 56.805Z" fill="black" fill-opacity="0.2"/>
<path d="M32.9066 67.5261L27.767 63.7474L22.4922 67.5261H32.9066Z" fill="#4E8C3E"/>
<path fill-rule="evenodd" clip-rule="evenodd" d="M27.7698 63.3008L34.0079 67.8873H21.3675L27.7698 63.3008ZM23.6169 67.165H31.8053L27.7643 64.1939L23.6169 67.165Z" fill="black"/>
<path fill-rule="evenodd" clip-rule="evenodd" d="M27.7698 63.3008L34.0079 67.8873H21.3675L27.7698 63.3008ZM23.6169 67.165H31.8053L27.7643 64.1939L23.6169 67.165Z" fill="black" fill-opacity="0.2"/>
<path d="M34.267 67.931L44.9519 58.8889L49.5505 67.931H34.267Z" fill="#373737"/>
<path fill-rule="evenodd" clip-rule="evenodd" d="M45.0673 58.3177L50.14 68.2921H33.2807L45.0673 58.3177ZM35.2533 67.5699H48.961L44.8366 59.46L35.2533 67.5699Z" fill="black"/>
<path fill-rule="evenodd" clip-rule="evenodd" d="M45.0673 58.3177L50.14 68.2921H33.2807L45.0673 58.3177ZM35.2533 67.5699H48.961L44.8366 59.46L35.2533 67.5699Z" fill="black" fill-opacity="0.2"/>
<path d="M22.0969 67.5261L11.412 58.484L6.81338 67.5261H22.0969Z" fill="#373737"/>
<path fill-rule="evenodd" clip-rule="evenodd" d="M11.2966 57.9129L6.22387 67.8873H23.0832L11.2966 57.9129ZM21.1106 67.165H7.40289L11.5273 59.0552L21.1106 67.165Z" fill="black"/>
<path fill-rule="evenodd" clip-rule="evenodd" d="M11.2966 57.9129L6.22387 67.8873H23.0832L11.2966 57.9129ZM21.1106 67.165H7.40289L11.5273 59.0552L21.1106 67.165Z" fill="black" fill-opacity="0.2"/>
<defs>
<linearGradient id="paint0_linear_848_2441" x1="29.17" y1="-3.4892" x2="29.17" y2="76.5209" gradientUnits="userSpaceOnUse">
<stop stop-color="#E5A279" stop-opacity="0"/>
<stop offset="0.0001" stop-color="#E5A279" stop-opacity="0"/>
<stop offset="0.723958" stop-color="#AF472F" stop-opacity="0.48"/>
</linearGradient>
</defs>
</svg>
